<svg xmlns="http://www.w3.org/2000/svg" viewBox="0 0 1200 900">
  <rect width="1200" height="900" fill="#101010"/>

  <!-- Nav -->
  <rect x="40" y="34" width="24" height="24" rx="6" fill="#EDEDED"/>
  <rect x="76" y="40" width="80" height="12" rx="4" fill="#EDEDED"/>
  <g fill="#6f6f6f">
    <rect x="760" y="41" width="50" height="9" rx="4"/>
    <rect x="836" y="41" width="56" height="9" rx="4"/>
    <rect x="918" y="41" width="64" height="9" rx="4"/>
  </g>
  <rect x="1020" y="26" width="140" height="38" rx="19" fill="#EDEDED"/>
  <rect x="1056" y="41" width="68" height="9" rx="4" fill="#101010"/>

  <!-- Hero -->
  <rect x="380" y="150" width="440" height="34" rx="17" fill="#1a1a1a" stroke="#2c2c2c"/>
  <circle cx="408" cy="167" r="4" fill="#EDEDED"/>
  <rect x="422" y="162" width="200" height="10" rx="5" fill="#6f6f6f"/>

  <rect x="150" y="224" width="900" height="64" rx="10" fill="#EDEDED"/>
  <rect x="250" y="306" width="700" height="64" rx="10" fill="#EDEDED" opacity="0.35"/>
  <rect x="330" y="396" width="540" height="14" rx="6" fill="#5c5c5c"/>

  <rect x="430" y="452" width="150" height="46" rx="23" fill="#EDEDED"/>
  <rect x="460" y="470" width="90" height="10" rx="5" fill="#101010"/>
  <rect x="600" y="452" width="170" height="46" rx="23" fill="none" stroke="#3a3a3a"/>
  <rect x="626" y="470" width="118" height="10" rx="5" fill="#8a8a8a"/>

  <!-- Logo row -->
  <g fill="#3a3a3a">
    <rect x="180" y="576" width="110" height="18" rx="5"/>
    <rect x="360" y="576" width="130" height="18" rx="5"/>
    <rect x="560" y="576" width="100" height="18" rx="5"/>
    <rect x="730" y="576" width="140" height="18" rx="5"/>
    <rect x="940" y="576" width="120" height="18" rx="5"/>
  </g>
  <line x1="40" y1="636" x2="1160" y2="636" stroke="#222" stroke-width="1"/>

  <!-- Features -->
  <g>
    <rect x="40" y="680" width="360" height="180" rx="12" fill="#161616" stroke="#262626"/>
    <rect x="64" y="704" width="40" height="40" rx="10" fill="#EDEDED"/>
    <rect x="64" y="768" width="200" height="14" rx="6" fill="#EDEDED"/>
    <rect x="64" y="798" width="310" height="9" rx="4" fill="#5c5c5c"/>
    <rect x="64" y="820" width="260" height="9" rx="4" fill="#3a3a3a"/>
  </g>
  <g>
    <rect x="420" y="680" width="360" height="180" rx="12" fill="#161616" stroke="#262626"/>
    <rect x="444" y="704" width="40" height="40" rx="10" fill="#EDEDED"/>
    <rect x="444" y="768" width="160" height="14" rx="6" fill="#EDEDED"/>
    <rect x="444" y="798" width="290" height="9" rx="4" fill="#5c5c5c"/>
    <rect x="444" y="820" width="230" height="9" rx="4" fill="#3a3a3a"/>
  </g>
  <g>
    <rect x="800" y="680" width="360" height="180" rx="12" fill="#161616" stroke="#262626"/>
    <rect x="824" y="704" width="40" height="40" rx="10" fill="#EDEDED"/>
    <rect x="824" y="768" width="180" height="14" rx="6" fill="#EDEDED"/>
    <rect x="824" y="798" width="280" height="9" rx="4" fill="#5c5c5c"/>
    <rect x="824" y="820" width="240" height="9" rx="4" fill="#3a3a3a"/>
  </g>
</svg>
